<?xml version="1.0" encoding="UTF-8"?>
<svg width="1090px" height="512px" viewBox="0 0 1090 512" version="1.1" xmlns="http://www.w3.org/2000/svg" xmlns:xlink="http://www.w3.org/1999/xlink">
    <!-- Generator: Sketch 50.2 (55047) - http://www.bohemiancoding.com/sketch -->
    <title>irish_traveler_drawings</title>
    <desc>Created with Sketch.</desc>
    <defs></defs>
    <g id="Page-1" stroke="none" stroke-width="1" fill="none" fill-rule="evenodd">
        <path d="M335,412 L425,280" id="Line-6" stroke="#000000" stroke-width="2" stroke-linecap="square"></path>
        <path d="M395,414 L485,280" id="Line-7" stroke="#000000" stroke-width="2" stroke-linecap="square"></path>
        <path d="M576.5,415.5 L667,279" id="Line-8" stroke="#000000" stroke-width="2" stroke-linecap="square"></path>
        <path d="M35,381 L35,412" id="Line-3" stroke="#D0021B" stroke-width="2" stroke-linecap="square"></path>
        <path d="M155,381 L155,412" id="Line-3" stroke="#D0021B" stroke-width="2" stroke-linecap="square"></path>
        <path d="M275,381 L275,412" id="Line-3" stroke="#D0021B" stroke-width="2" stroke-linecap="square"></path>
        <path d="M455,381 L455,412" id="Line-3" stroke="#D0021B" stroke-width="2" stroke-linecap="square"></path>
        <path d="M515,381 L515,412" id="Line-3" stroke="#D0021B" stroke-width="2" stroke-linecap="square"></path>
        <path d="M635,381 L635,412" id="Line-3" stroke="#D0021B" stroke-width="2" stroke-linecap="square"></path>
        <path d="M635,381 L635,412" id="Line-3" stroke="#D0021B" stroke-width="2" stroke-linecap="square"></path>
        <path d="M755,381 L755,412" id="Line-3" stroke="#D0021B" stroke-width="2" stroke-linecap="square"></path>
        <path d="M875,381 L875,412" id="Line-3" stroke="#D0021B" stroke-width="2" stroke-linecap="square"></path>
        <path d="M995,381 L995,412" id="Line-3" stroke="#D0021B" stroke-width="2" stroke-linecap="square"></path>
        <polyline id="Line" stroke="#000000" stroke-width="2" stroke-linecap="square" points="545 52.0040981 545 21.5 605 21.5 605 52.0040981"></polyline>
        <polyline id="Line" stroke="#000000" stroke-width="2" stroke-linecap="square" transform="translate(515.000000, 115.252049) rotate(-180.000000) translate(-515.000000, -115.252049) " points="485 130.504098 485 100 545 100 545 130.504098"></polyline>
        <path d="M995,379.5 L35,379.5" id="Line-4" stroke="#D0021B" stroke-width="2" stroke-linecap="square"></path>
        <path d="M575.5,312 L575.5,378.5" id="Line-5" stroke="#D0021B" stroke-width="2" stroke-linecap="square"></path>
        <polyline id="Line" stroke="#000000" stroke-width="2" stroke-linecap="square" transform="translate(575.000000, 295.252049) rotate(-180.000000) translate(-575.000000, -295.252049) " points="545 310.504098 545 280 605 280 605 310.504098"></polyline>
        <polyline id="Line" stroke="#000000" stroke-width="2" stroke-linecap="square" transform="translate(66.000000, 475.252049) rotate(-180.000000) translate(-66.000000, -475.252049) " points="36 490.504098 36 460 96 460 96 490.504098"></polyline>
        <polyline id="Line" stroke="#000000" stroke-width="2" stroke-linecap="square" transform="translate(186.000000, 475.252049) rotate(-180.000000) translate(-186.000000, -475.252049) " points="156 490.504098 156 460 216 460 216 490.504098"></polyline>
        <polyline id="Line" stroke="#000000" stroke-width="2" stroke-linecap="square" transform="translate(306.000000, 475.252049) rotate(-180.000000) translate(-306.000000, -475.252049) " points="276 490.504098 276 460 336 460 336 490.504098"></polyline>
        <polyline id="Line" stroke="#000000" stroke-width="2" stroke-linecap="square" transform="translate(426.000000, 475.252049) rotate(-180.000000) translate(-426.000000, -475.252049) " points="396 490.504098 396 460 456 460 456 490.504098"></polyline>
        <polyline id="Line" stroke="#000000" stroke-width="2" stroke-linecap="square" transform="translate(546.000000, 475.252049) rotate(-180.000000) translate(-546.000000, -475.252049) " points="516 490.504098 516 460 576 460 576 490.504098"></polyline>
        <polyline id="Line" stroke="#000000" stroke-width="2" stroke-linecap="square" transform="translate(666.000000, 475.252049) rotate(-180.000000) translate(-666.000000, -475.252049) " points="636 490.504098 636 460 696 460 696 490.504098"></polyline>
        <polyline id="Line" stroke="#000000" stroke-width="2" stroke-linecap="square" transform="translate(786.000000, 475.252049) rotate(-180.000000) translate(-786.000000, -475.252049) " points="756 490.504098 756 460 816 460 816 490.504098"></polyline>
        <polyline id="Line" stroke="#000000" stroke-width="2" stroke-linecap="square" transform="translate(906.000000, 475.252049) rotate(-180.000000) translate(-906.000000, -475.252049) " points="876 490.504098 876 460 936 460 936 490.504098"></polyline>
        <polyline id="Line" stroke="#000000" stroke-width="2" stroke-linecap="square" transform="translate(1026.000000, 475.252049) rotate(-180.000000) translate(-1026.000000, -475.252049) " points="996 490.504098 996 460 1056 460 1056 490.504098"></polyline>
        <polyline id="Line" stroke="#000000" stroke-width="2" stroke-linecap="square" points="605 232.504098 605 202 665 202 665 232.504098"></polyline>
        <path d="M515,131 L485,202" id="Line-2" stroke="#000000" stroke-width="2" stroke-linecap="square"></path>
        <path d="M605,100 L636,201" id="Line-2" stroke="#000000" stroke-width="2" stroke-linecap="square"></path>
        <g id="Group" transform="translate(425.000000, 202.000000)" stroke="#000000" stroke-linecap="square" stroke-width="2">
            <polyline id="Line" points="1.63109569e-15 30.5040981 0 0 60 0 60 30.5040981"></polyline>
            <polyline id="Line" points="60 30.5040981 60 0 120 0 120 30.5040981"></polyline>
        </g>
        <circle id="Oval" fill="#F5A623" cx="485" cy="76" r="25"></circle>
        <circle id="Oval" fill="#246F74" cx="605" cy="256" r="25"></circle>
        <circle id="Oval-Copy" fill="#246F74" cx="155" cy="436" r="25"></circle>
        <circle id="Oval-Copy-2" fill="#246F74" cx="335" cy="436" r="25"></circle>
        <circle id="Oval-Copy-3" fill="#246F74" cx="455" cy="436" r="25"></circle>
        <circle id="Oval-Copy-4" fill="#246F74" cx="575" cy="436" r="25"></circle>
        <circle id="Oval-Copy-6" fill="#246F74" cx="755" cy="436" r="25"></circle>
        <circle id="Oval-Copy-7" fill="#246F74" cx="875" cy="436" r="25"></circle>
        <circle id="Oval-Copy-8" stroke="#000000" stroke-width="5" cx="1055" cy="436" r="22.5"></circle>
        <circle id="Oval-Copy-5" fill="#F5A623" cx="695" cy="436" r="25"></circle>
        <circle id="Oval-Copy-9" fill="#D0021B" cx="95" cy="436" r="25"></circle>
        <polygon id="Triangle" fill="#246F74" points="545 51 570 101 520 101"></polygon>
        <polygon id="Triangle" fill="#246F74" points="425 231 450 281 400 281"></polygon>
        <polygon id="Triangle" fill="#246F74" points="275 411 300 461 250 461"></polygon>
        <polygon id="Triangle-Copy-8" fill="#7ED321" points="215 411 240 461 190 461"></polygon>
        <polygon id="Triangle-Copy" fill="#246F74" points="35 411 60 461 10 461"></polygon>
        <polygon id="Triangle-Copy-2" fill="#246F74" points="395 411 420 461 370 461"></polygon>
        <polygon id="Triangle-Copy-3" fill="#246F74" points="635 411 660 461 610 461"></polygon>
        <polygon id="Triangle-Copy-6" fill="#D0021B" points="815 411 840 461 790 461"></polygon>
        <path d="M935,416.59017 L914.045085,458.5 L955.954915,458.5 L935,416.59017 Z" id="Triangle-Copy-7" stroke="#000000" stroke-width="5"></path>
        <polygon id="Triangle-Copy-4" fill="#246F74" points="515 411 540 461 490 461"></polygon>
        <polygon id="Triangle-Copy-5" fill="#246F74" points="995 411 1020 461 970 461"></polygon>
        <polygon id="Triangle" fill="#246F74" points="485 231 510 281 460 281"></polygon>
        <polygon id="Triangle" fill="#246F74" points="545 231 570 281 520 281"></polygon>
        <polygon id="Triangle" fill="#246F74" points="665 231 690 281 640 281"></polygon>
        <polygon id="Triangle" fill="#246F74" points="605 51 630 101 580 101"></polygon>
    </g>
</svg>